<svg width="40" height="40" viewBox="0 0 40 40" fill="none" xmlns="http://www.w3.org/2000/svg">
<path d="M11.8202 0C4.76024 0 0.000244141 4.542 0.000244141 11.32V28.66C0.000244141 35.44 4.76024 40 11.8202 40H28.1602C35.2402 40 40.0002 35.44 40.0002 28.66V11.32C40.0002 4.542 35.2402 0 28.1602 0H11.8202ZM19.5802 11.44C20.1602 10.86 21.1202 10.86 21.7002 11.44L29.2402 18.94C29.8002 19.5 29.8002 20.5 29.2402 21.06L21.7002 28.56C21.1202 29.14 20.1602 29.14 19.5802 28.56C19.0002 27.96 19.0002 27.02 19.5802 26.42L24.5402 21.5H11.8402C11.0002 21.5 10.3402 20.82 10.3402 20C10.3402 19.16 11.0002 18.5 11.8402 18.5H24.5402L19.5802 13.56C19.3002 13.28 19.1402 12.88 19.1402 12.5C19.1402 12.122 19.3002 11.74 19.5802 11.44Z" fill="#403BA1"/>
</svg>
