<svg width="40" height="40" viewBox="0 0 40 40" fill="none" xmlns="http://www.w3.org/2000/svg">
<path d="M28.1798 0C35.2398 0 39.9998 4.542 39.9998 11.32V28.66C39.9998 35.44 35.2398 40 28.1798 40H11.8398C4.75976 40 -0.000244141 35.44 -0.000244141 28.66V11.32C-0.000244141 4.542 4.75976 0 11.8398 0H28.1798ZM20.4198 11.44C19.8398 10.86 18.8798 10.86 18.2998 11.44L10.7598 18.94C10.1998 19.5 10.1998 20.5 10.7598 21.06L18.2998 28.56C18.8798 29.14 19.8398 29.14 20.4198 28.56C20.9998 27.96 20.9998 27.02 20.4198 26.42L15.4598 21.5H28.1598C28.9998 21.5 29.6598 20.82 29.6598 20C29.6598 19.16 28.9998 18.5 28.1598 18.5H15.4598L20.4198 13.56C20.6998 13.28 20.8598 12.88 20.8598 12.5C20.8598 12.122 20.6998 11.74 20.4198 11.44Z" fill="#403BA1"/>
</svg>
