<svg width="18" height="18" viewBox="0 0 18 18" fill="none" xmlns="http://www.w3.org/2000/svg">
<path fill-rule="evenodd" clip-rule="evenodd" d="M9.00033 0.666687C4.40033 0.666687 0.666992 4.40002 0.666992 9.00002C0.666992 13.6 4.40033 17.3334 9.00033 17.3334C13.6003 17.3334 17.3337 13.6 17.3337 9.00002C17.3337 4.40002 13.6003 0.666687 9.00033 0.666687ZM2.33366 9.00002C2.33366 12.675 5.32533 15.6667 9.00033 15.6667C12.6753 15.6667 15.667 12.675 15.667 9.00002C15.667 5.32502 12.6753 2.33335 9.00033 2.33335C5.32533 2.33335 2.33366 5.32502 2.33366 9.00002ZM4.83366 8.16669V9.83335H13.167V8.16669H4.83366Z" fill="#2E3A59"/>
</svg>
