<svg width="15" height="11" viewBox="0 0 15 11" fill="none" xmlns="http://www.w3.org/2000/svg">
<path d="M14.6367 2.16809C14.4727 1.51184 13.9531 0.99231 13.3242 0.828247C12.1484 0.500122 7.5 0.500122 7.5 0.500122C7.5 0.500122 2.82422 0.500122 1.64844 0.828247C1.01953 0.99231 0.5 1.51184 0.335938 2.16809C0.0078125 3.31653 0.0078125 5.77747 0.0078125 5.77747C0.0078125 5.77747 0.0078125 8.21106 0.335938 9.38684C0.5 10.0431 1.01953 10.5353 1.64844 10.6993C2.82422 11.0001 7.5 11.0001 7.5 11.0001C7.5 11.0001 12.1484 11.0001 13.3242 10.6993C13.9531 10.5353 14.4727 10.0431 14.6367 9.38684C14.9648 8.21106 14.9648 5.77747 14.9648 5.77747C14.9648 5.77747 14.9648 3.31653 14.6367 2.16809ZM5.96875 7.99231V3.56262L9.85156 5.77747L5.96875 7.99231Z" fill="white"/>
</svg>
