<svg width="44" height="44" viewBox="0 0 44 44" fill="none" xmlns="http://www.w3.org/2000/svg">
<path d="M0 22C0 9.84974 9.84974 0 22 0V0C34.1503 0 44 9.84974 44 22V22C44 34.1503 34.1503 44 22 44V44C9.84974 44 0 34.1503 0 22V22Z" fill="#F0F0F0"/>
<path fill-rule="evenodd" clip-rule="evenodd" d="M29.7369 14.2603C29.3901 13.9132 28.8278 13.9132 28.481 14.2603L21.9853 20.7612L15.5166 14.2925C15.1697 13.9456 14.6072 13.9456 14.2602 14.2925C13.9133 14.6395 13.9133 15.202 14.2602 15.5489L20.7294 22.0182L14.2959 28.4569C13.9491 28.804 13.9491 29.3668 14.2959 29.7139C14.6427 30.061 15.205 30.061 15.5518 29.7139L21.9859 23.2746L28.4511 29.7398C28.798 30.0867 29.3605 30.0867 29.7075 29.7398C30.0544 29.3928 30.0544 28.8303 29.7075 28.4834L23.2418 22.0176L29.7369 15.5173C30.0837 15.1702 30.0837 14.6074 29.7369 14.2603Z" fill="#2B2D31"/>
</svg>
