<svg width="15" height="12" viewBox="0 0 15 12" fill="none" xmlns="http://www.w3.org/2000/svg">
<path d="M13.0508 2.90637C13.5977 2.49622 14.0898 2.00403 14.4727 1.42981C13.9805 1.64856 13.4062 1.81262 12.832 1.86731C13.4336 1.51184 13.8711 0.964966 14.0898 0.281372C13.543 0.609497 12.9141 0.855591 12.2852 0.99231C11.7383 0.418091 11 0.0899658 10.1797 0.0899658C8.59375 0.0899658 7.30859 1.37512 7.30859 2.96106C7.30859 3.17981 7.33594 3.39856 7.39062 3.61731C5.01172 3.48059 2.87891 2.33215 1.45703 0.609497C1.21094 1.01965 1.07422 1.51184 1.07422 2.05872C1.07422 3.04309 1.56641 3.91809 2.35938 4.43762C1.89453 4.41028 1.42969 4.3009 1.04688 4.08215V4.1095C1.04688 5.50403 2.03125 6.65247 3.34375 6.9259C3.125 6.98059 2.85156 7.03528 2.60547 7.03528C2.41406 7.03528 2.25 7.00793 2.05859 6.98059C2.41406 8.12903 3.48047 8.94934 4.73828 8.97668C3.75391 9.74231 2.52344 10.2072 1.18359 10.2072C0.9375 10.2072 0.71875 10.1798 0.5 10.1525C1.75781 10.9728 3.26172 11.4376 4.90234 11.4376C10.1797 11.4376 13.0508 7.08997 13.0508 3.28918C13.0508 3.15247 13.0508 3.04309 13.0508 2.90637Z" fill="white"/>
</svg>
