<svg width="14" height="16" viewBox="0 0 14 16" fill="none" xmlns="http://www.w3.org/2000/svg">
<path d="M6.98774 0C9.44272 0 11.4181 1.93182 11.4181 4.31679V5.54346C12.796 5.97355 13.7999 7.22089 13.7999 8.7107V12.6602C13.7999 14.5046 12.2708 16 10.3857 16H3.61498C1.72903 16 0.199951 14.5046 0.199951 12.6602V8.7107C0.199951 7.22089 1.20471 5.97355 2.58177 5.54346V4.31679C2.5899 1.93182 4.56527 0 6.98774 0ZM6.99587 9.1074C6.60567 9.1074 6.28864 9.41744 6.28864 9.79904V11.5639C6.28864 11.9535 6.60567 12.2635 6.99587 12.2635C7.39419 12.2635 7.71123 11.9535 7.71123 11.5639V9.79904C7.71123 9.41744 7.39419 9.1074 6.99587 9.1074ZM7.004 1.39123C5.35379 1.39123 4.01249 2.69501 4.00436 4.30089V5.37095H9.9955V4.31679C9.9955 2.70296 8.6542 1.39123 7.004 1.39123Z" fill="#252437"/>
</svg>
