<svg width="17" height="20" viewBox="0 0 17 20" fill="none" xmlns="http://www.w3.org/2000/svg">
<path d="M7.90304 17.5087C8.35854 17.2772 11.3009 16.4888 11.8112 16.4616C12.2495 16.4463 12.7556 16.5495 12.886 17.0359C12.986 17.5054 12.8244 17.9887 12.5189 18.35C12.1338 18.8598 11.627 19.2532 11.0531 19.4998C10.7343 19.6311 10.4101 19.719 10.0796 19.7606C9.45836 19.8343 8.82278 19.747 8.2351 19.4968C7.78918 19.3379 7.4075 19.0001 7.25942 18.5435C7.12908 18.0571 7.51578 17.7147 7.90304 17.5087ZM5.45522 0.328984C7.46449 -0.209399 9.77242 0.19403 11.4155 1.44919C12.4794 2.2558 13.115 3.17616 13.5388 4.75801L13.6491 5.16952C13.9742 6.38266 14.4864 7.01178 15.4128 7.64672C16.1102 8.11049 16.4898 8.84395 16.7164 9.68936C16.9426 10.5338 16.88 11.4097 16.4985 12.2095C15.9799 13.1847 15.0871 13.9578 14.063 14.325C12.5799 14.8611 11.0904 15.377 9.5515 15.7893C8.01167 16.2019 6.47645 16.5434 4.9123 16.7769C3.84078 16.9712 2.68108 16.7481 1.7453 16.1626C1.01507 15.6607 0.521882 14.9337 0.295618 14.0893C0.0690932 13.2439 0.0321339 12.4186 0.403232 11.6685C0.91012 10.6495 1.01804 9.85424 0.692985 8.6411L0.58272 8.22959C0.147397 6.60494 0.267861 5.43404 0.823439 4.17054C1.65737 2.32153 3.40179 0.879199 5.36882 0.352134L5.45522 0.328984Z" fill="#403BA1"/>
</svg>
