<svg width="25" height="24" viewBox="0 0 25 24" fill="none" xmlns="http://www.w3.org/2000/svg">
<path d="M12.5 19C16.366 19 19.5 15.866 19.5 12C19.5 8.13401 16.366 5 12.5 5C8.63401 5 5.5 8.13401 5.5 12C5.5 15.866 8.63401 19 12.5 19Z" stroke="#0DA0A6" stroke-width="2" stroke-linecap="round" stroke-linejoin="round"/>
<path d="M12.5 9V12L14 13.5" stroke="#0DA0A6" stroke-width="2" stroke-linecap="round" stroke-linejoin="round"/>
<path d="M7.98998 6.65002L8.33998 2.82002C8.38489 2.32309 8.61391 1.8609 8.9821 1.52417C9.35028 1.18744 9.83103 1.00049 10.33 1.00002H14.68C15.1807 0.997985 15.6639 1.18381 16.0342 1.52079C16.4045 1.85776 16.6349 2.32137 16.68 2.82002L17.03 6.65002M17.01 17.35L16.66 21.18C16.6149 21.6787 16.3845 22.1423 16.0142 22.4792C15.6439 22.8162 15.1607 23.002 14.66 23H10.33C9.82931 23.002 9.34609 22.8162 8.97578 22.4792C8.60548 22.1423 8.37504 21.6787 8.32998 21.18L7.97998 17.35H17.01Z" stroke="#0DA0A6" stroke-width="2" stroke-linecap="round" stroke-linejoin="round"/>
</svg>
