<svg width="24" height="24" viewBox="0 0 24 24" fill="none" xmlns="http://www.w3.org/2000/svg">
<mask id="mask0" mask-type="alpha" maskUnits="userSpaceOnUse" x="0" y="0" width="24" height="24">
<path fill-rule="evenodd" clip-rule="evenodd" d="M9.60002 5.24787L12 6.17802L14.4 5.24787C15.9407 4.65077 17.6594 4.65077 19.2 5.24787L20.9966 5.94414C21.361 6.08539 21.6 6.42742 21.6 6.80776V17.8262C21.6 18.3399 21.1702 18.7563 20.64 18.7563C20.5179 18.7563 20.3969 18.7338 20.2835 18.6898L19.2 18.2699C17.6594 17.6728 15.9407 17.6728 14.4 18.2699L12 19.2L9.60002 18.2699C8.05936 17.6728 6.34068 17.6728 4.80002 18.2699L3.71656 18.6898C3.22429 18.8806 2.6656 18.6486 2.46869 18.1716C2.42333 18.0618 2.40002 17.9445 2.40002 17.8262V6.80776C2.40002 6.42742 2.63902 6.08539 3.00349 5.94414L4.80002 5.24787C6.34068 4.65077 8.05936 4.65077 9.60002 5.24787ZM5.66731 7.48569L4.80002 7.82181V15.7456C6.66199 15.2338 8.65377 15.3292 10.4673 16.0321L10.8 16.1616V8.40005L10.806 8.28965L8.73274 7.48569C7.75005 7.10484 6.65 7.10484 5.66731 7.48569ZM15.2673 7.48569L13.1949 8.28845L13.2 8.40005V16.1604L13.5327 16.0321C15.3463 15.3292 17.3381 15.2338 19.2 15.7456V7.82181L18.3327 7.48569C17.35 7.10484 16.25 7.10484 15.2673 7.48569Z" fill="#1A1A1A"/>
</mask>
<g mask="url(#mask0)">
<rect width="24" height="24" fill="#252437"/>
</g>
</svg>
