<svg width="18" height="12" viewBox="0 0 18 12" fill="none" xmlns="http://www.w3.org/2000/svg">
<path d="M9.00033 3.49996C7.63199 3.49996 6.50033 4.63246 6.50033 5.99996C6.50033 7.36829 7.63199 8.49996 9.00033 8.49996C10.3678 8.49996 11.5003 7.36829 11.5003 5.99996C11.5003 4.63246 10.3678 3.49996 9.00033 3.49996Z" fill="#252437"/>
<path d="M9.00033 0.166626C2.67366 0.166626 0.772257 5.68079 0.754851 5.73663L0.666992 5.99996L0.754022 6.26329C0.772257 6.31913 2.67366 11.8333 9.00033 11.8333C15.327 11.8333 17.2284 6.31913 17.2458 6.26329L17.3337 5.99996L17.2466 5.73663C17.2284 5.68079 15.327 0.166626 9.00033 0.166626ZM9.00033 10.1666C4.56511 10.1666 2.84689 6.96163 2.4308 5.99996C2.84854 5.03496 4.5676 1.83329 9.00033 1.83329C13.4355 1.83329 15.1538 5.03829 15.5698 5.99996C15.1521 6.96496 13.4331 10.1666 9.00033 10.1666Z" fill="#252437"/>
</svg>
