<svg width="18" height="20" viewBox="0 0 18 20" fill="none" xmlns="http://www.w3.org/2000/svg">
<path fill-rule="evenodd" clip-rule="evenodd" d="M14.9996 7.60002C15.6624 7.60002 16.1996 8.13728 16.1996 8.80002V16C16.1996 17.9882 14.5878 19.6 12.5996 19.6H5.39961C3.41138 19.6 1.79961 17.9882 1.79961 16V8.80002C1.79961 8.13728 2.33687 7.60002 2.99961 7.60002H14.9996ZM13.7996 10H4.19961V16C4.19961 16.6628 4.73687 17.2 5.39961 17.2H12.5996C13.2624 17.2 13.7996 16.6628 13.7996 16V10ZM5.39961 1.60002C5.39961 0.937283 5.93687 0.400024 6.59961 0.400024H11.3996C12.0624 0.400024 12.5996 0.937283 12.5996 1.60002V2.80002H16.1996C16.8624 2.80002 17.3996 3.33728 17.3996 4.00002C17.3996 4.66277 16.8624 5.20002 16.1996 5.20002H1.79961C1.13687 5.20002 0.599609 4.66277 0.599609 4.00002C0.599609 3.33728 1.13687 2.80002 1.79961 2.80002H5.39961V1.60002Z" fill="#ED4B9E"/>
</svg>
