<svg width="13" height="13" viewBox="0 0 13 13" fill="none" xmlns="http://www.w3.org/2000/svg">
<path d="M6.5 3.60559C4.75 3.60559 3.35547 5.02747 3.35547 6.75012C3.35547 8.50012 4.75 9.89465 6.5 9.89465C8.22266 9.89465 9.64453 8.50012 9.64453 6.75012C9.64453 5.02747 8.22266 3.60559 6.5 3.60559ZM6.5 8.8009C5.37891 8.8009 4.44922 7.89856 4.44922 6.75012C4.44922 5.62903 5.35156 4.72668 6.5 4.72668C7.62109 4.72668 8.52344 5.62903 8.52344 6.75012C8.52344 7.89856 7.62109 8.8009 6.5 8.8009ZM10.4922 3.49622C10.4922 3.08606 10.1641 2.75793 9.75391 2.75793C9.34375 2.75793 9.01562 3.08606 9.01562 3.49622C9.01562 3.90637 9.34375 4.2345 9.75391 4.2345C10.1641 4.2345 10.4922 3.90637 10.4922 3.49622ZM12.5703 4.2345C12.5156 3.25012 12.2969 2.37512 11.5859 1.66418C10.875 0.953247 10 0.734497 9.01562 0.67981C8.00391 0.625122 4.96875 0.625122 3.95703 0.67981C2.97266 0.734497 2.125 0.953247 1.38672 1.66418C0.675781 2.37512 0.457031 3.25012 0.402344 4.2345C0.347656 5.24622 0.347656 8.28137 0.402344 9.29309C0.457031 10.2775 0.675781 11.1251 1.38672 11.8634C2.125 12.5743 2.97266 12.7931 3.95703 12.8478C4.96875 12.9025 8.00391 12.9025 9.01562 12.8478C10 12.7931 10.875 12.5743 11.5859 11.8634C12.2969 11.1251 12.5156 10.2775 12.5703 9.29309C12.625 8.28137 12.625 5.24622 12.5703 4.2345ZM11.2578 10.3595C11.0664 10.9064 10.6289 11.3165 10.1094 11.5353C9.28906 11.8634 7.375 11.7814 6.5 11.7814C5.59766 11.7814 3.68359 11.8634 2.89062 11.5353C2.34375 11.3165 1.93359 10.9064 1.71484 10.3595C1.38672 9.56653 1.46875 7.65247 1.46875 6.75012C1.46875 5.87512 1.38672 3.96106 1.71484 3.14075C1.93359 2.62122 2.34375 2.21106 2.89062 1.99231C3.68359 1.66418 5.59766 1.74622 6.5 1.74622C7.375 1.74622 9.28906 1.66418 10.1094 1.99231C10.6289 2.18372 11.0391 2.62122 11.2578 3.14075C11.5859 3.96106 11.5039 5.87512 11.5039 6.75012C11.5039 7.65247 11.5859 9.56653 11.2578 10.3595Z" fill="white"/>
</svg>
