<svg width="28" height="22" viewBox="0 0 28 22" fill="none" xmlns="http://www.w3.org/2000/svg">
<path d="M24.125 9.5H21.5V9.125C21.5 8.09375 22.2969 7.25 23.375 7.25H23.75C24.9688 7.25 26 6.26562 26 5V2.75C26 1.53125 24.9688 0.5 23.75 0.5H23.375C18.5938 0.5 14.75 4.39062 14.75 9.125V18.125C14.75 20 16.25 21.5 18.125 21.5H24.125C25.9531 21.5 27.5 20 27.5 18.125V12.875C27.5 11.0469 25.9531 9.5 24.125 9.5ZM25.25 18.125C25.25 18.7812 24.7344 19.25 24.125 19.25H18.125C17.4688 19.25 17 18.7812 17 18.125V9.125C17 5.60938 19.8594 2.75 23.375 2.75H23.75V5H23.375C21.0781 5 19.25 6.875 19.25 9.125V11.75H24.125C24.7344 11.75 25.25 12.2656 25.25 12.875V18.125ZM9.875 9.5H7.25V9.125C7.25 8.09375 8.04688 7.25 9.125 7.25H9.5C10.7188 7.25 11.75 6.26562 11.75 5V2.75C11.75 1.53125 10.7188 0.5 9.5 0.5H9.125C4.34375 0.5 0.5 4.39062 0.5 9.125V18.125C0.5 20 2 21.5 3.875 21.5H9.875C11.7031 21.5 13.25 20 13.25 18.125V12.875C13.25 11.0469 11.7031 9.5 9.875 9.5ZM11 18.125C11 18.7812 10.4844 19.25 9.875 19.25H3.875C3.21875 19.25 2.75 18.7812 2.75 18.125V9.125C2.75 5.60938 5.60938 2.75 9.125 2.75H9.5V5H9.125C6.82812 5 5 6.875 5 9.125V11.75H9.875C10.4844 11.75 11 12.2656 11 12.875V18.125Z" fill="#403BA1"/>
</svg>
