<svg width="24" height="24" viewBox="0 0 24 24" fill="none" xmlns="http://www.w3.org/2000/svg">
<mask id="mask0" mask-type="alpha" maskUnits="userSpaceOnUse" x="0" y="0" width="24" height="24">
<path fill-rule="evenodd" clip-rule="evenodd" d="M18.0004 3.59998C19.9886 3.59998 21.6004 5.21175 21.6004 7.19998V9.59998C21.6004 10.5219 21.2538 11.363 20.6838 11.9999C21.2534 12.636 21.6004 13.4774 21.6004 14.4V16.8C21.6004 18.7882 19.9886 20.4 18.0004 20.4H6.00039C4.01217 20.4 2.40039 18.7882 2.40039 16.8V14.4C2.40039 13.478 2.74697 12.637 3.31696 12.0001C2.7474 11.364 2.40039 10.5225 2.40039 9.59998V7.19998C2.40039 5.21175 4.01217 3.59998 6.00039 3.59998H18.0004ZM18.0004 13.2H6.00039C5.33765 13.2 4.80039 13.7372 4.80039 14.4V16.8C4.80039 17.4627 5.33765 18 6.00039 18H18.0004C18.6631 18 19.2004 17.4627 19.2004 16.8V14.4C19.2004 13.7372 18.6631 13.2 18.0004 13.2ZM7.20039 14.4C7.86313 14.4 8.40039 14.9372 8.40039 15.6C8.40039 16.2627 7.86313 16.8 7.20039 16.8C6.53765 16.8 6.00039 16.2627 6.00039 15.6C6.00039 14.9372 6.53765 14.4 7.20039 14.4ZM18.0004 5.99998H6.00039C5.33765 5.99998 4.80039 6.53723 4.80039 7.19998V9.59997C4.80039 10.2627 5.33765 10.8 6.00039 10.8H18.0004C18.6631 10.8 19.2004 10.2627 19.2004 9.59997V7.19998C19.2004 6.53723 18.6631 5.99998 18.0004 5.99998ZM7.20039 7.19998C7.86313 7.19998 8.40039 7.73723 8.40039 8.39998C8.40039 9.06272 7.86313 9.59998 7.20039 9.59998C6.53765 9.59998 6.00039 9.06272 6.00039 8.39998C6.00039 7.73723 6.53765 7.19998 7.20039 7.19998Z" fill="#1A1A1A"/>
</mask>
<g mask="url(#mask0)">
<rect width="24" height="24" fill="white"/>
</g>
</svg>
