<svg width="14" height="13" viewBox="0 0 14 13" fill="none" xmlns="http://www.w3.org/2000/svg">
<path fill-rule="evenodd" clip-rule="evenodd" d="M1.94132 0.0012207L13.2539 11.3138L13.255 11.3126L13.2562 11.3138L12.3134 12.2566L10.0755 10.0187C9.23755 10.4095 8.22182 10.6667 6.99967 10.6667C1.93834 10.6667 0.41722 6.25539 0.402632 6.21072L0.333008 6.00005L0.403295 5.78939C0.412092 5.76117 1.02237 3.99033 2.74666 2.68984L0.999676 0.942861L1.94132 0.0012207ZM9.05747 9.00066L7.85933 7.80251C7.59807 7.92895 7.30626 8.00005 6.99967 8.00005C5.90501 8.00005 4.99967 7.09472 4.99967 6.00005C4.99967 5.69347 5.07077 5.40165 5.19722 5.1404L3.69056 3.63374C2.51233 4.444 1.94326 5.53989 1.74405 6.00005C2.07692 6.76939 3.4515 9.33339 6.99967 9.33339C7.78901 9.33339 8.47079 9.20648 9.05747 9.00066Z" fill="white"/>
<path d="M5.33315 1.50744C5.8404 1.3964 6.39475 1.33339 6.99967 1.33339C12.061 1.33339 13.5821 5.74472 13.5967 5.78939L13.6663 6.00005L13.5961 6.21072C13.5892 6.23273 13.2162 7.31547 12.2337 8.408L11.3059 7.48022C11.8302 6.88646 12.1236 6.3043 12.2553 6.00005C11.9224 5.23072 10.5478 2.66672 6.99967 2.66672C6.83136 2.66672 6.66793 2.67249 6.50928 2.68356L5.33315 1.50744Z" fill="white"/>
</svg>
