<svg width="24" height="24" viewBox="0 0 24 24" fill="none" xmlns="http://www.w3.org/2000/svg">
<mask id="mask0" mask-type="alpha" maskUnits="userSpaceOnUse" x="0" y="0" width="24" height="24">
<path fill-rule="evenodd" clip-rule="evenodd" d="M2.41246 0.00175476L19.3813 16.9706L19.3831 16.9688L19.3848 16.9706L17.9706 18.3848L14.6137 15.0279C13.3568 15.6142 11.8332 16 10 16C2.408 16 0.126318 9.383 0.104436 9.316L0 9L0.105431 8.684C0.118626 8.64168 1.03404 5.98542 3.62047 4.03469L1 1.41422L2.41246 0.00175476ZM13.0867 13.5009L11.2895 11.7037C10.8976 11.8934 10.4599 12 10 12C8.358 12 7 10.642 7 9C7 8.54013 7.10665 8.1024 7.29631 7.71052L5.03632 5.45053C3.26898 6.66593 2.41537 8.30976 2.11657 9C2.61587 10.154 4.67774 14 10 14C11.184 14 12.2067 13.8096 13.0867 13.5009Z" fill="#403BA1"/>
<path d="M7.50022 2.26108C8.26109 2.09452 9.09262 2 10 2C17.592 2 19.8737 8.617 19.8956 8.684L20 9L19.8946 9.316C19.8843 9.34902 19.3248 10.9731 17.8511 12.6119L16.4594 11.2203C17.2458 10.3296 17.6859 9.45637 17.8834 9C17.3841 7.846 15.3223 4 10 4C9.74753 4 9.50239 4.00866 9.2644 4.02527L7.50022 2.26108Z" fill="#403BA1"/>
</mask>
<g mask="url(#mask0)">
<rect width="24" height="24" fill="#403BA1"/>
</g>
</svg>