<svg width="24" height="24" viewBox="0 0 24 24" fill="none" xmlns="http://www.w3.org/2000/svg">
<mask id="mask0" mask-type="alpha" maskUnits="userSpaceOnUse" x="0" y="0" width="24" height="24">
<path fill-rule="evenodd" clip-rule="evenodd" d="M12.0004 2.40002C17.3023 2.40002 21.6004 6.69809 21.6004 12C21.6004 17.302 17.3023 21.6 12.0004 21.6C6.69846 21.6 2.40039 17.302 2.40039 12C2.40039 6.69809 6.69846 2.40002 12.0004 2.40002ZM12.0004 4.80002C8.02394 4.80002 4.80039 8.02357 4.80039 12C4.80039 15.9765 8.02394 19.2 12.0004 19.2C15.9768 19.2 19.2004 15.9765 19.2004 12C19.2004 8.02357 15.9768 4.80002 12.0004 4.80002ZM12.0004 7.20002C12.6631 7.20002 13.2004 7.73728 13.2004 8.40002V10.8H15.6004C16.2631 10.8 16.8004 11.3373 16.8004 12C16.8004 12.6628 16.2631 13.2 15.6004 13.2H13.2004V15.6C13.2004 16.2628 12.6631 16.8 12.0004 16.8C11.3376 16.8 10.8004 16.2628 10.8004 15.6V13.2H8.40039C7.73765 13.2 7.20039 12.6628 7.20039 12C7.20039 11.3373 7.73765 10.8 8.40039 10.8H10.8004V8.40002C10.8004 7.73728 11.3376 7.20002 12.0004 7.20002Z" fill="#1A1A1A"/>
</mask>
<g mask="url(#mask0)">
<rect width="24" height="24" fill="white"/>
</g>
</svg>
