<svg width="14" height="16" viewBox="0 0 14 16" fill="none" xmlns="http://www.w3.org/2000/svg">
<path fill-rule="evenodd" clip-rule="evenodd" d="M7 0C7.26522 0 7.51957 0.105357 7.70711 0.292893L11.7071 4.29289C11.8946 4.48043 12 4.73478 12 5C12 5.55228 11.5523 6 11 6H7C6.48716 6 6.06449 5.61396 6.00673 5.11662L6 5L5.999 2H3C2.44772 2 2 2.44772 2 3V13C2 13.5128 2.38604 13.9355 2.88338 13.9933L3 14C3.55228 14 4 14.4477 4 15C4 15.5128 3.61396 15.9355 3.11662 15.9933L3 16C1.34315 16 0 14.6569 0 13V3C0 1.34315 1.34315 0 3 0H7ZM10.2929 8.29289C10.6534 7.93241 11.2206 7.90468 11.6129 8.2097L11.7071 8.29289L13.7071 10.2929C14.0676 10.6534 14.0953 11.2206 13.7903 11.6129L13.7071 11.7071L9.70711 15.7071C9.55083 15.8634 9.34815 15.9626 9.13144 15.9913L9 16H7C6.48716 16 6.06449 15.614 6.00673 15.1166L6 15V13C6 12.779 6.07316 12.5655 6.20608 12.392L6.29289 12.2929L10.2929 8.29289Z" fill="#252437"/>
</svg>
