<svg width="6" height="20" viewBox="0 0 6 20" fill="none" xmlns="http://www.w3.org/2000/svg">
<path fill-rule="evenodd" clip-rule="evenodd" d="M2.99961 14.8C4.32509 14.8 5.39961 15.8745 5.39961 17.2C5.39961 18.5255 4.32509 19.6 2.99961 19.6C1.67413 19.6 0.599609 18.5255 0.599609 17.2C0.599609 15.8745 1.67413 14.8 2.99961 14.8ZM2.99961 7.60002C4.32509 7.60002 5.39961 8.67454 5.39961 10C5.39961 11.3255 4.32509 12.4 2.99961 12.4C1.67413 12.4 0.599609 11.3255 0.599609 10C0.599609 8.67454 1.67413 7.60002 2.99961 7.60002ZM2.99961 0.400024C4.32509 0.400024 5.39961 1.47454 5.39961 2.80002C5.39961 4.12551 4.32509 5.20002 2.99961 5.20002C1.67413 5.20002 0.599609 4.12551 0.599609 2.80002C0.599609 1.47454 1.67413 0.400024 2.99961 0.400024Z" fill="#252437"/>
</svg>
